<svg width="89" height="48" viewBox="0 0 89 48" fill="none" xmlns="http://www.w3.org/2000/svg">
<path d="M58.4624 14.8898C58.4531 23.1017 51.7901 29.7521 43.5782 29.7459C35.3663 29.7397 28.7134 23.0792 28.7166 14.8673C28.7197 6.65542 35.3776 5.29308e-06 43.5895 0C51.8026 0.0023303 58.4601 6.65981 58.4624 14.8729" fill="#EBEBEC"/>
<path d="M28.9359 12.3442C28.7926 13.181 28.7192 14.0283 28.7164 14.8772C28.6935 21.9616 33.6707 28.0787 40.6116 29.497C47.5525 30.9154 54.5305 27.2412 57.2887 20.7158L28.9359 12.3442Z" fill="#DCDDDE"/>
<path d="M33.4911 22.1386L38.4642 10.0308L33.8837 8.48992L34.918 5.85138L42.8674 8.40971L39.2748 20.0066L47.3593 22.3708L46.0928 25.9423L33.4911 22.1386Z" fill="#13913E"/>
<path d="M42.175 16.2281L48.5667 9.9294L44.7207 8.82332L45.8859 5.89771L54.1224 8.52358L48.4653 14.8434L53.4722 16.2366L52.3028 19.2466L42.175 16.2281Z" fill="#EE2E24"/>
<path d="M73.7896 29.7797C65.5662 29.7797 58.8998 23.1133 58.8998 14.8898C58.8998 6.66641 65.5662 0 73.7896 0C82.013 0 88.6794 6.66641 88.6794 14.8898C88.6701 23.1094 82.0092 29.7704 73.7896 29.7797Z" fill="#EE2E24"/>
<path d="M73.7894 6.95677e-06C71.8346 -0.00188983 69.8989 0.384107 68.0944 1.13564L79.4929 28.644C86.0537 25.9235 89.7796 18.9479 88.3926 11.9821C87.0056 5.01638 80.8919 -1.98736e-05 73.7894 6.95677e-06Z" fill="#F68D76"/>
<path d="M71.1298 8.46887L76.905 22.4004C73.5277 23.8315 68.5925 24.0342 65.1223 22.5524L71.1298 8.46887Z" fill="white"/>
<path d="M72.4681 4.98993L74.4101 9.52823L76.3521 4.98993H72.4681Z" fill="#EE2E24"/>
<path d="M79.6407 6.48035L77.8043 11.0651L82.3891 9.22443L79.6407 6.48035Z" fill="#EE2E24"/>
<path d="M83.8792 12.8254L79.3367 14.7673L83.8792 16.7093V12.8254Z" fill="#EE2E24"/>
<path d="M82.3891 20.3065L77.8043 18.47L79.6407 23.0548L82.3891 20.3065Z" fill="#EE2E24"/>
<path d="M12.2142 29.0935H5.59169e-07V16.8202C-0.0011201 12.5813 1.68228 8.51566 4.67963 5.51831C7.67698 2.52096 11.7426 0.837564 15.9815 0.838685H28.2548V13.0529C28.2548 21.9165 21.0694 29.1019 12.2057 29.1019" fill="#0DAD4A"/>
<path d="M4.48523 21.2375L8.37079 5.45026C12.0283 5.77124 14.7059 7.58731 14.7059 11.7389C14.7059 17.1449 11.4961 18.6865 8.09204 18.9568L7.7415 21.8583L4.48523 21.2375Z" fill="white"/>
<path d="M23.2921 0.83844L12.1676 29.0932H12.2141C21.0777 29.0932 28.2631 21.9078 28.2631 13.0442V0.83844H23.2921Z" fill="#13913E"/>
<path d="M18.6972 25.2755L22.2618 10.3541L19.8755 9.52209L14.1992 23.9325L18.6972 25.2755Z" fill="white"/>
<path fill-rule="evenodd" clip-rule="evenodd" d="M0.00168596 42.8543C-0.0337 41.4999 0.489237 40.1905 1.44809 39.2325C2.40694 38.2745 3.71754 37.752 5.0731 37.7873C6.77913 37.7598 8.37311 38.6336 9.26635 40.0861L7.60661 41.0469C7.08562 40.1492 6.11094 39.6125 5.0731 39.6518C3.16309 39.6518 1.9117 40.9679 1.9117 42.8543C1.86213 43.709 2.17817 44.5445 2.78113 45.1528C3.38409 45.7611 4.21723 46.0849 5.0731 46.0437C6.11002 46.0839 7.08448 45.549 7.60661 44.653L9.26635 45.6137C8.37311 47.0662 6.77913 47.9401 5.0731 47.9125C3.71984 47.9452 2.41214 47.4231 1.45413 46.4676C0.496123 45.5121 -0.0287114 44.2064 0.00168596 42.8543ZM18.1016 45.8726V47.6985H12.0677V38.0012H18.0313V39.8271H13.9912V41.8932H17.6844V43.6929H13.9912V45.8726H18.1016ZM26.506 47.6985V45.8726H22.8128V38.0012H20.9031V47.6985H26.506ZM35.3415 45.8726V47.6985H29.3076V38.0012H35.2712V39.8271H31.231V41.8932H34.9243V43.6929H31.231V45.8726H35.3415ZM45.9007 47.6985V38.0012H43.9834V43.9157L39.816 38.0012H38.3583V47.6985H40.2757V41.7666L44.443 47.6985H45.9007ZM55.598 39.8271H52.9867V47.6985H51.0805V39.8271H48.4866V38.0012H55.598V39.8271ZM63.3172 45.9528H59.503L58.9297 47.6985H56.8911L60.24 38.0012H62.5802L65.942 47.6985H63.8905L63.3172 45.9528ZM62.7312 44.1632L61.4253 40.2092L60.1323 44.1676L62.7312 44.1632ZM76.0702 38.0012V47.6985H74.6125L70.4451 41.7666V47.6985H68.5278V38.0012H69.9899L74.1528 43.9157V38.0012H76.0702ZM78.872 42.8411C78.8769 40.0443 81.1481 37.7809 83.9448 37.7858C86.7416 37.7906 89.0049 40.0618 89 42.8586C88.9952 45.6555 86.724 47.9188 83.9273 47.9139C82.5802 47.9246 81.2855 47.393 80.3346 46.4389C79.3838 45.4847 78.8567 44.1881 78.872 42.8411ZM87.0764 42.8413C87.0522 41.108 85.6318 39.7202 83.8985 39.7362C82.1651 39.7523 80.7707 41.1662 80.7786 42.8997C80.7866 44.6331 82.1939 46.0342 83.9273 46.0344C84.7766 46.0556 85.5968 45.7246 86.1933 45.1197C86.7898 44.5149 87.1095 43.6902 87.0764 42.8413Z" fill="#001E45"/>
</svg>
