<svg width="207" height="70" viewBox="0 0 207 70" fill="none" xmlns="http://www.w3.org/2000/svg">
<rect width="206" height="70" transform="translate(0.0192871)" fill="#1D1A18"/>
<path d="M48.3606 17H28.0193V24.1933H48.3606V17Z" fill="white"/>
<path d="M78.3 24.1933H84.8335V53H92.1079V24.1933H98.6413V17H78.3V24.1933Z" fill="white"/>
<path d="M28.0193 33.4514V37.0481V53H35.2936V37.0481H48.3606V29.8547H28.0193V33.4514Z" fill="white"/>
<path d="M66.2097 42.9426C66.2097 44.5079 64.93 45.8067 63.3135 45.8067C61.7306 45.8067 60.4172 44.5412 60.4172 42.9426V17H53.1428V42.9426C53.1428 48.5042 57.6893 53 63.3135 53C68.9376 53 73.4841 48.5042 73.4841 42.9426V17H66.2097V42.9426Z" fill="white"/>
<path d="M116.49 42.9426C116.49 44.5079 115.211 45.8067 113.594 45.8067C112.011 45.8067 110.698 44.5412 110.698 42.9426V17H103.423V42.9426C103.423 48.5042 107.97 53 113.594 53C119.218 53 123.765 48.5042 123.765 42.9426V17H116.49V42.9426Z" fill="white"/>
<path d="M144.611 38.1804C148.08 36.2488 150.437 32.5523 150.437 28.3228C150.437 22.062 145.318 17 138.987 17H135.855H128.581V53H135.855V39.6457H137.067L144.847 53H153.266L144.611 38.1804ZM138.987 32.4524H135.855V24.1933H138.987C141.277 24.1933 143.163 26.025 143.163 28.3228C143.163 30.6207 141.311 32.4524 138.987 32.4524Z" fill="white"/>
<path d="M157.678 17H159.766V19.4311H161.719V17H163.807V23.2942H161.719V20.9963H159.766V23.2609H157.678V17Z" fill="white"/>
<path d="M167.343 21.3959C167.512 21.5957 167.748 21.6957 167.983 21.6957C168.219 21.6957 168.421 21.5957 168.59 21.4292C168.758 21.2294 168.825 20.9963 168.825 20.6966V17H170.913V20.6633C170.913 21.2294 170.779 21.6957 170.543 22.0953C170.307 22.4949 169.937 22.8279 169.499 23.0611C169.061 23.2942 168.522 23.3941 167.916 23.3941C167.31 23.3941 166.805 23.2942 166.333 23.0611C165.862 22.8279 165.525 22.5282 165.289 22.0953C165.053 21.6957 164.919 21.1961 164.919 20.6633V17H167.007V20.6633C167.074 20.963 167.175 21.2294 167.343 21.3959Z" fill="white"/>
<path d="M176.639 17.1998C177.009 17.333 177.312 17.5328 177.514 17.766C177.716 17.9991 177.817 18.2988 177.817 18.5985C177.817 18.8982 177.716 19.198 177.514 19.4311C177.312 19.6642 177.076 19.8307 176.74 19.9306C177.11 20.0305 177.413 20.197 177.649 20.4968C177.885 20.7965 177.986 21.1295 177.986 21.5291C177.986 21.8955 177.885 22.1952 177.683 22.4616C177.48 22.728 177.177 22.9278 176.807 23.0944C176.436 23.2276 175.965 23.2942 175.46 23.2942H172.092V17H175.291C175.83 17 176.268 17.0666 176.639 17.1998ZM175.561 19.2979C175.662 19.198 175.696 19.0981 175.696 18.9648C175.696 18.8316 175.662 18.7317 175.561 18.6318C175.46 18.5652 175.359 18.4986 175.224 18.4986H174.214V19.3978H175.224C175.359 19.4311 175.46 19.3645 175.561 19.2979ZM175.662 21.629C175.763 21.5291 175.83 21.4292 175.83 21.2627C175.83 21.1295 175.763 21.0296 175.662 20.9297C175.561 20.8298 175.392 20.7965 175.19 20.7965H174.18V21.7623H175.19C175.392 21.7623 175.561 21.6957 175.662 21.629Z" fill="white"/>
<path d="M164.986 53V37.0481H170.745V53H178.019V37.0481V33.4514V29.8547H157.678V33.4514V37.0481V53H164.986Z" fill="white"/>
</svg>
