<?xml version="1.0" encoding="UTF-8"?> <svg xmlns="http://www.w3.org/2000/svg" width="614" height="354" viewBox="0 0 614 354" fill="none"> <path fill-rule="evenodd" clip-rule="evenodd" d="M558.281 185.562C551.376 186.332 545.966 203.179 543.914 223.363C541.861 243.546 543.914 259.432 550.798 258.662C557.683 257.892 563.22 240.916 565.358 220.647C567.497 200.379 565.358 184.707 558.346 185.476L558.281 185.562ZM394.314 104.102C377.209 105.192 365.92 152.229 360.767 202.709C355.615 253.189 357.667 297.725 374.729 296.613C391.791 295.501 401.626 250.174 406.8 199.716C411.974 149.258 411.418 103.054 394.314 104.102ZM550.178 263.558C535.704 265.183 524.308 258.235 519.305 246.304C511.821 259.667 501.217 270.785 489.008 272.838C475.816 274.976 461.342 269.417 456.018 254.835C436.155 283.1 405.838 302.728 373.553 304.844C322.71 308.137 285.743 266.744 289.099 211.582C289.082 206.685 289.51 201.797 290.382 196.979C298.507 151.887 295.492 121.163 268.766 135.275C249.524 145.473 244.542 185.54 244.542 185.54L244.393 185.113C242.255 202.902 240.245 219.536 238.876 232.984C238.656 234.977 238.32 236.954 237.871 238.907C230.003 295.309 180.956 357.783 95.84 353.357C26.802 349.765 -14.0564 290.84 5.97725 230.718C15.2564 202.773 49.4441 180.473 73.6042 185.412C100.758 190.95 103.302 210.449 101.078 211.518C94.8565 214.511 78.3507 215.922 65.8644 231.958C46.6218 256.652 35.9315 335.975 101.955 342.154C161.821 347.755 187.948 271.597 156.689 230.846C143.861 214.255 113.928 187.422 89.2548 159.841C66.2492 134.184 56.97 111.713 60.2199 79.8561C62.9138 53.2799 88.1216 -3.1435 160.217 0.598096C191.476 2.22302 224.829 23.2829 213.241 46.9299C206.228 61.2122 185.681 60.3997 179.353 49.9018C178.904 49.1535 189.231 45.2408 190.385 37.8004C192.117 26.7038 179.695 9.27864 158.592 8.18823C117.114 6.05016 93.4454 54.969 124.105 83.1701C147.26 104.465 170.865 125.803 191.198 143.934C193.336 119.667 195.174 100.531 195.773 94.5445C196.007 92.3992 196.021 90.2357 195.816 88.0876C195.816 88.0876 172.297 87.1255 177.001 81.6734C177.749 80.8182 196.436 82.2293 221.9 70.0851C242.361 60.2928 263.892 40.5798 263.892 40.5798C263.892 40.5798 256.793 90.076 249.866 142.608C261.305 127.834 280.44 110.687 307.594 110.751C320.721 110.751 330.749 113.915 338.254 119.089C354.389 106.047 374.083 98.1718 394.763 96.4902C447.06 93.0693 484.711 136.964 478.831 194.499C478.831 195.033 478.703 195.547 478.639 196.081C484.893 191.325 492.132 188.03 499.827 186.438C517.658 183.381 523.068 194.841 519.967 202.282C516.226 211.261 505.001 210.834 505.557 209.508C512.548 190.501 504.103 187.871 500.126 190.629C494.589 194.478 486.378 209.465 483.513 231.252C480.67 252.633 484.454 268.668 491.595 266.594C508.144 261.741 510.838 223.833 524.35 204.184C525.655 202.282 526.724 200.806 527.664 199.609C535.468 189.09 546.65 181.521 558.773 180.174C579.961 177.801 595.227 194.52 592.875 217.526C590.523 240.531 571.409 261.271 550.221 263.558H550.178ZM612.995 266.039C612.372 269.355 610.497 272.301 607.756 274.268C605.017 276.235 601.624 277.071 598.285 276.601C596.694 276.239 595.191 275.559 593.87 274.604C592.546 273.648 591.43 272.436 590.588 271.037C589.745 269.641 589.194 268.087 588.965 266.47C588.738 264.856 588.839 263.21 589.262 261.634C589.865 258.297 591.734 255.32 594.479 253.328C597.224 251.335 600.632 250.482 603.993 250.944C605.601 251.301 607.119 251.983 608.453 252.945C609.79 253.909 610.914 255.134 611.761 256.548C612.608 257.959 613.157 259.53 613.375 261.162C613.595 262.793 613.48 264.452 613.037 266.039H612.995Z" fill="black"></path> </svg> 