<svg width="25" height="25" viewBox="0 0 25 25" fill="none" xmlns="http://www.w3.org/2000/svg">
<path d="M18.2947 1.04676L15.4018 1.04199C12.1516 1.04199 10.0512 3.25563 10.0512 6.68182V9.28215H7.14244C6.89109 9.28215 6.68755 9.49148 6.68755 9.74966V13.5173C6.68755 13.7755 6.89131 13.9845 7.14244 13.9845H10.0512V23.4914C10.0512 23.7495 10.2547 23.9586 10.5061 23.9586H14.3012C14.5526 23.9586 14.7561 23.7494 14.7561 23.4914V13.9845H18.1572C18.4084 13.9845 18.612 13.7755 18.612 13.5173L18.6134 9.74966C18.6134 9.6257 18.5653 9.50698 18.4802 9.41924C18.395 9.33151 18.2789 9.28215 18.1583 9.28215H14.7561V7.07782C14.7561 6.01832 15.0019 5.48046 16.3455 5.48046L18.2942 5.47976C18.5455 5.47976 18.7489 5.27043 18.7489 5.01246V1.51404C18.7489 1.25632 18.5456 1.04724 18.2947 1.04676Z" fill="#030407"/>
</svg>
