<svg width="25" height="25" viewBox="0 0 25 25" fill="none" xmlns="http://www.w3.org/2000/svg">
<path d="M22.8961 8.20807C22.8474 7.1011 22.6683 6.34009 22.4119 5.68065C22.1474 4.98068 21.7405 4.35399 21.2072 3.83302C20.6863 3.30395 20.0555 2.89284 19.3636 2.63243C18.7003 2.37601 17.9433 2.19699 16.8363 2.1482C15.7211 2.09524 15.367 2.08301 12.5385 2.08301C9.71001 2.08301 9.35598 2.09524 8.24489 2.14405C7.13794 2.19287 6.37692 2.37202 5.71764 2.6283C5.01751 2.89284 4.39083 3.29982 3.86986 3.83302C3.34078 4.35399 2.92983 4.9848 2.66926 5.67668C2.41284 6.34009 2.23383 7.09698 2.18501 8.20393C2.13208 9.31915 2.11984 9.67319 2.11984 12.5017C2.11984 15.3302 2.13208 15.6842 2.18089 16.7953C2.2297 17.9023 2.40886 18.6633 2.6653 19.3228C2.92983 20.0228 3.34078 20.6494 3.86986 21.1705C4.39083 21.6995 5.02164 22.1106 5.71351 22.3709C6.37692 22.6275 7.13381 22.8064 8.24092 22.8553C9.35184 22.9042 9.70605 22.9162 12.5346 22.9162C15.3631 22.9162 15.717 22.9042 16.8281 22.8553C17.9352 22.8064 18.6961 22.6275 19.3555 22.3709C20.7555 21.8297 21.8625 20.7226 22.4038 19.3228C22.66 18.6594 22.8392 17.9023 22.8881 16.7953C22.9369 15.6842 22.9491 15.3302 22.9491 12.5017C22.9491 9.67319 22.945 9.31915 22.8961 8.20807ZM21.02 16.7139C20.9753 17.7314 20.8044 18.2808 20.6619 18.6472C20.3119 19.5547 19.5916 20.275 18.6839 20.6251C18.3177 20.7675 17.7642 20.9384 16.7508 20.9831C15.6519 21.032 15.3224 21.0442 12.5427 21.0442C9.76295 21.0442 9.42927 21.032 8.33439 20.9831C7.31695 20.9384 6.76751 20.7675 6.40123 20.6251C5.94959 20.4581 5.53847 20.1936 5.20478 19.8476C4.85884 19.5098 4.59431 19.103 4.42739 18.6512C4.28494 18.285 4.11405 17.7314 4.06937 16.7181C4.0204 15.6192 4.00833 15.2895 4.00833 12.5098C4.00833 9.7301 4.0204 9.39641 4.06937 8.3017C4.11405 7.28426 4.28494 6.73482 4.42739 6.36854C4.59431 5.91673 4.85884 5.50577 5.20892 5.17193C5.54658 4.82599 5.95356 4.56146 6.40537 4.3947C6.77166 4.25224 7.32522 4.08135 8.33853 4.03651C9.43737 3.98771 9.76709 3.97546 12.5466 3.97546C15.3305 3.97546 15.66 3.98771 16.7549 4.03651C17.7724 4.08135 18.3217 4.25224 18.6881 4.3947C19.1397 4.56146 19.5508 4.82599 19.8845 5.17193C20.2305 5.50976 20.495 5.91673 20.6619 6.36854C20.8044 6.73482 20.9753 7.28823 21.02 8.3017C21.0689 9.40055 21.0811 9.7301 21.0811 12.5098C21.0811 15.2895 21.0689 15.6151 21.02 16.7139Z" fill="#030407"/>
<path d="M12.5385 7.1499C9.58391 7.1499 7.18671 9.54696 7.18671 12.5017C7.18671 15.4564 9.58391 17.8536 12.5385 17.8536C15.4932 17.8536 17.8903 15.4564 17.8903 12.5017C17.8903 9.54696 15.4932 7.1499 12.5385 7.1499ZM12.5385 15.9733C10.6217 15.9733 9.06693 14.4187 9.06693 12.5017C9.06693 10.5848 10.6217 9.03012 12.5385 9.03012C14.4554 9.03012 16.0101 10.5848 16.0101 12.5017C16.0101 14.4187 14.4554 15.9733 12.5385 15.9733Z" fill="#030407"/>
<path d="M19.3516 6.93837C19.3516 7.62834 18.792 8.18778 18.1019 8.18778C17.412 8.18778 16.8525 7.62834 16.8525 6.93837C16.8525 6.24825 17.412 5.68896 18.1019 5.68896C18.792 5.68896 19.3516 6.24825 19.3516 6.93837Z" fill="#030407"/>
</svg>
