<svg width="25" height="25" viewBox="0 0 25 25" fill="none" xmlns="http://www.w3.org/2000/svg">
<path fill-rule="evenodd" clip-rule="evenodd" d="M22.9165 12.5002C22.9165 18.2531 18.2528 22.9168 12.4999 22.9168C6.74689 22.9168 2.08319 18.2531 2.08319 12.5002C2.08319 6.7472 6.74689 2.0835 12.4999 2.0835C18.2528 2.0835 22.9165 6.7472 22.9165 12.5002ZM16.8934 7.9179L6.8501 11.7903C6.16172 12.0594 6.17388 12.4405 6.73203 12.6176L9.30322 13.4196L15.2676 9.66443C15.5445 9.4804 15.8015 9.58457 15.5914 9.76946L10.765 14.1297L10.5801 16.7799C10.8492 16.7799 10.9664 16.6628 11.1053 16.5239L12.3614 15.3137L14.9655 17.2331C15.4404 17.5021 15.7798 17.3632 15.9065 16.792L17.6165 8.73561L17.6158 8.73648C17.7667 8.03162 17.3597 7.7495 16.8934 7.9179Z" fill="#030407"/>
</svg>
