<svg width="25" height="25" viewBox="0 0 25 25" fill="none" xmlns="http://www.w3.org/2000/svg">
<g clip-path="url(#clip0_6_91)">
<path d="M24.1195 14.472C24.8653 8.19384 23.7611 4.2303 21.7695 2.43759L21.7705 2.43655C18.5559 -0.624914 7.69969 -1.07804 3.85386 2.57405C2.12677 4.3605 1.51844 6.98237 1.45177 10.2282C1.3851 13.4751 1.30594 19.5574 6.97364 21.2074H6.97886L6.97364 23.7272C6.97364 23.7272 6.93511 24.748 7.58719 24.9532C8.33302 25.1949 8.67052 24.721 10.9903 21.9501C14.8695 22.2866 17.8486 21.5157 18.1872 21.4032C18.9705 21.1407 23.4028 20.5543 24.1195 14.472ZM11.3726 20.1772C11.3726 20.1772 8.91739 23.2387 8.15384 24.0335C7.90386 24.2918 7.62989 24.2679 7.63406 23.7554C7.63406 23.4188 7.65281 19.5719 7.65281 19.5719C2.84761 18.1949 3.13094 13.0157 3.18302 10.3063C3.23511 7.59592 3.73094 5.37612 5.19344 3.88134C8.56739 0.717796 18.0851 1.42509 20.5101 3.70425C23.4747 6.33237 22.4195 13.7574 22.4258 14.0105C21.8164 19.0876 18.2247 19.4094 17.5642 19.6293C17.282 19.723 14.6622 20.3969 11.3726 20.1772Z" fill="#030407"/>
<path d="M12.7309 4.47607C12.3299 4.47607 12.3299 5.10107 12.7309 5.10629C15.8425 5.13025 18.405 7.299 18.4331 11.2771C18.4331 11.6969 19.0476 11.6917 19.0425 11.2719H19.0414C19.0081 6.98545 16.2101 4.50004 12.7309 4.47607Z" fill="#030407"/>
<path d="M16.8242 10.6178C16.8148 11.0323 17.4283 11.0521 17.4336 10.6323C17.4845 8.26878 16.0273 6.32191 13.2887 6.1167C12.8877 6.08753 12.846 6.71775 13.246 6.74691C15.621 6.92713 16.872 8.54795 16.8242 10.6178Z" fill="#030407"/>
<path d="M16.1676 13.3064C15.6531 13.0085 15.1291 13.1939 14.9124 13.4866L14.4593 14.0731C14.2291 14.371 13.7989 14.3314 13.7989 14.3314C10.6593 13.5012 9.81974 10.2158 9.81974 10.2158C9.81974 10.2158 9.78119 9.77101 10.0687 9.53247L10.6353 9.06372C10.9187 8.83872 11.0978 8.29706 10.8093 7.76476C10.0385 6.37206 9.52077 5.89186 9.25724 5.52311C8.98015 5.17623 8.56349 5.09811 8.13015 5.33248H8.12077C7.21974 5.85956 6.23327 6.84601 6.5489 7.86164C7.08744 8.93247 8.07702 12.346 11.2312 14.9252C12.7135 16.145 15.0593 17.395 16.0551 17.6836L16.0645 17.6981C17.0458 18.0251 18 17.0001 18.5093 16.072V16.0648C18.7353 15.6158 18.6603 15.1908 18.3301 14.9127C17.7447 14.3418 16.8614 13.7116 16.1676 13.3064Z" fill="#030407"/>
<path d="M13.7174 8.4419C14.7185 8.50023 15.2039 9.02315 15.256 10.0971C15.2747 10.5169 15.884 10.4877 15.8653 10.068C15.7987 8.66586 15.0674 7.88461 13.7508 7.8117C13.3497 7.78773 13.3122 8.41795 13.7174 8.4419Z" fill="#030407"/>
</g>
<defs>
<clipPath id="clip0_6_91">
<rect width="25" height="25" fill="white"/>
</clipPath>
</defs>
</svg>
