<svg width="25" height="25" viewBox="0 0 25 25" fill="none" xmlns="http://www.w3.org/2000/svg">
<path fill-rule="evenodd" clip-rule="evenodd" d="M22.2816 4.28539C23.3523 4.57378 24.1967 5.41797 24.4848 6.48894C25.0205 8.44509 24.9998 12.5226 24.9998 12.5226C24.9998 12.5226 24.9998 16.5793 24.4852 18.5357C24.1967 19.6065 23.3525 20.4509 22.2816 20.739C20.3252 21.254 12.5 21.254 12.5 21.254C12.5 21.254 4.69511 21.254 2.71834 20.7187C1.64738 20.4302 0.803181 19.5859 0.514791 18.5151C0 16.5793 0 12.502 0 12.502C0 12.502 0 8.44509 0.514791 6.48894C0.802991 5.41816 1.66797 4.55317 2.71816 4.26497C4.67452 3.75 12.4997 3.75 12.4997 3.75C12.4997 3.75 20.3252 3.75 22.2816 4.28539ZM16.5155 12.5022L10.0082 16.2501V8.75425L16.5155 12.5022Z" fill="#030407"/>
</svg>
